<svg xmlns="http://www.w3.org/2000/svg" width="375" height="265.001" viewBox="0 0 375 265.001">
  <defs>
    <style>
      .cls-1 {
        fill: #fff;
      }
    </style>
  </defs>
  <path id="Subtraction_21" data-name="Subtraction 21" class="cls-1" d="M-1882,248h-.3V218.039c-.282,0-22.673-.039-40.961-.039-10.685,0-17.8.013-21.139.039-.129,0-.26,0-.39,0-3.446,0-5.9.826-7.284,2.454a5.166,5.166,0,0,0-1.169,3.833v13.091a9.625,9.625,0,0,1-1.837,5.925,10.578,10.578,0,0,1-4.041,3.165A17.15,17.15,0,0,1-1965,248h-292V-17h375Z" transform="translate(2257 17)"/>
</svg>
